<svg width="360" height="159" viewBox="0 0 360 159" fill="none" xmlns="http://www.w3.org/2000/svg">
<path d="M1.92889 90.637C1.92889 86.6874 2.6637 83.22 4.13333 80.2348C5.64889 77.2496 7.69259 74.9533 10.2644 73.3459C12.8363 71.7385 15.7067 70.9348 18.8756 70.9348C21.5852 70.9348 23.9504 71.4859 25.9711 72.5881C28.0378 73.6903 29.6222 75.137 30.7245 76.9281V71.4859H42.5045V109.926H30.7245V104.484C29.5763 106.275 27.9689 107.721 25.9022 108.824C23.8815 109.926 21.5163 110.477 18.8067 110.477C15.6837 110.477 12.8363 109.673 10.2644 108.066C7.69259 106.413 5.64889 104.093 4.13333 101.108C2.6637 98.077 1.92889 94.5866 1.92889 90.637ZM30.7245 90.7059C30.7245 87.7666 29.8978 85.4474 28.2445 83.7481C26.637 82.0489 24.6622 81.1992 22.32 81.1992C19.9778 81.1992 17.98 82.0489 16.3267 83.7481C14.7193 85.4015 13.9156 87.6977 13.9156 90.637C13.9156 93.5763 14.7193 95.9185 16.3267 97.6637C17.98 99.3629 19.9778 100.213 22.32 100.213C24.6622 100.213 26.637 99.3629 28.2445 97.6637C29.8978 95.9644 30.7245 93.6452 30.7245 90.7059ZM72.4512 99.937V109.926H66.4579C62.1868 109.926 58.8571 108.893 56.469 106.826C54.0808 104.713 52.8868 101.292 52.8868 96.5615V81.2681H48.2023V71.4859H52.8868V62.117H64.6668V71.4859H72.3823V81.2681H64.6668V96.6992C64.6668 97.8474 64.9423 98.674 65.4934 99.1792C66.0446 99.6844 66.9631 99.937 68.249 99.937H72.4512ZM115.248 90.0859C115.248 91.1881 115.18 92.3363 115.042 93.5303H88.3818C88.5655 95.9185 89.3233 97.7555 90.6551 99.0415C92.0329 100.281 93.7092 100.901 95.684 100.901C98.6233 100.901 100.667 99.6615 101.815 97.1815H114.353C113.71 99.7074 112.539 101.981 110.84 104.001C109.186 106.022 107.097 107.607 104.571 108.755C102.045 109.903 99.2203 110.477 96.0973 110.477C92.3314 110.477 88.9788 109.673 86.0396 108.066C83.1003 106.458 80.804 104.162 79.1507 101.177C77.4973 98.1918 76.6707 94.7015 76.6707 90.7059C76.6707 86.7103 77.4744 83.22 79.0818 80.2348C80.7351 77.2496 83.0314 74.9533 85.9707 73.3459C88.9099 71.7385 92.2855 70.9348 96.0973 70.9348C99.8173 70.9348 103.124 71.7155 106.017 73.277C108.911 74.8385 111.161 77.0659 112.768 79.9592C114.422 82.8526 115.248 86.2281 115.248 90.0859ZM103.193 86.9859C103.193 84.9652 102.504 83.3577 101.126 82.1637C99.7485 80.9696 98.0262 80.3726 95.9596 80.3726C93.9847 80.3726 92.3084 80.9466 90.9307 82.0948C89.5988 83.2429 88.7722 84.8733 88.4507 86.9859H103.193ZM144.885 71.0726C149.386 71.0726 152.968 72.5422 155.632 75.4814C158.342 78.3748 159.696 82.3703 159.696 87.4681V109.926H147.985V89.0526C147.985 86.4807 147.319 84.4829 145.987 83.0592C144.656 81.6355 142.864 80.9237 140.614 80.9237C138.364 80.9237 136.573 81.6355 135.241 83.0592C133.909 84.4829 133.243 86.4807 133.243 89.0526V109.926H121.463V71.4859H133.243V76.5837C134.437 74.8844 136.044 73.5526 138.065 72.5881C140.086 71.5777 142.359 71.0726 144.885 71.0726ZM165.54 90.637C165.54 86.6874 166.275 83.22 167.744 80.2348C169.26 77.2496 171.304 74.9533 173.876 73.3459C176.447 71.7385 179.318 70.9348 182.487 70.9348C185.013 70.9348 187.309 71.4629 189.376 72.5192C191.488 73.5755 193.142 74.9992 194.336 76.7903V58.9481H206.116V109.926H194.336V104.415C193.233 106.252 191.649 107.721 189.582 108.824C187.562 109.926 185.196 110.477 182.487 110.477C179.318 110.477 176.447 109.673 173.876 108.066C171.304 106.413 169.26 104.093 167.744 101.108C166.275 98.077 165.54 94.5866 165.54 90.637ZM194.336 90.7059C194.336 87.7666 193.509 85.4474 191.856 83.7481C190.248 82.0489 188.273 81.1992 185.931 81.1992C183.589 81.1992 181.591 82.0489 179.938 83.7481C178.33 85.4015 177.527 87.6977 177.527 90.637C177.527 93.5763 178.33 95.9185 179.938 97.6637C181.591 99.3629 183.589 100.213 185.931 100.213C188.273 100.213 190.248 99.3629 191.856 97.6637C193.509 95.9644 194.336 93.6452 194.336 90.7059ZM250.873 90.0859C250.873 91.1881 250.805 92.3363 250.667 93.5303H224.007C224.191 95.9185 224.948 97.7555 226.28 99.0415C227.658 100.281 229.334 100.901 231.309 100.901C234.248 100.901 236.292 99.6615 237.44 97.1815H249.978C249.335 99.7074 248.164 101.981 246.465 104.001C244.811 106.022 242.722 107.607 240.196 108.755C237.67 109.903 234.845 110.477 231.722 110.477C227.956 110.477 224.604 109.673 221.665 108.066C218.725 106.458 216.429 104.162 214.776 101.177C213.122 98.1918 212.296 94.7015 212.296 90.7059C212.296 86.7103 213.099 83.22 214.707 80.2348C216.36 77.2496 218.656 74.9533 221.596 73.3459C224.535 71.7385 227.911 70.9348 231.722 70.9348C235.442 70.9348 238.749 71.7155 241.642 73.277C244.536 74.8385 246.786 77.0659 248.394 79.9592C250.047 82.8526 250.873 86.2281 250.873 90.0859ZM238.818 86.9859C238.818 84.9652 238.129 83.3577 236.751 82.1637C235.373 80.9696 233.651 80.3726 231.585 80.3726C229.61 80.3726 227.933 80.9466 226.556 82.0948C225.224 83.2429 224.397 84.8733 224.076 86.9859H238.818Z" fill="#334788"/>
<path d="M281.572 114.046V50.8543H297.548V114.046H281.572ZM257.964 90.4386V74.4621H321.156V90.4386H257.964Z" fill="#F4A640"/>
<path d="M240.761 39.8349C249.913 30.6823 261.575 24.4493 274.27 21.9241C286.965 19.3989 300.123 20.6949 312.082 25.6483C324.04 30.6016 334.261 38.9898 341.452 49.7521C348.643 60.5144 352.482 73.1674 352.482 86.1111C352.482 99.0548 348.643 111.708 341.452 122.47C334.261 133.232 324.04 141.621 312.082 146.574C300.123 151.527 286.965 152.823 274.27 150.298C261.575 147.773 249.913 141.54 240.761 132.387" stroke="#334788" stroke-width="6.88889" stroke-linecap="round" stroke-dasharray="22.96 22.96"/>
</svg>
