<svg width="182" height="38" viewBox="0 0 182 38" fill="none" xmlns="http://www.w3.org/2000/svg">
<path d="M36.7749 18.2569H44.4394C46.1091 18.2569 47.3589 18.7169 48.1922 19.6407C49.0217 20.5646 49.4382 21.88 49.4382 23.5866C49.4382 25.3376 48.9836 26.7094 48.0775 27.6938C47.1714 28.6822 45.7864 29.1745 43.9258 29.1745H41.3987V35.5894H36.7749V18.2569ZM41.3987 25.6644H42.5338C43.4293 25.6644 44.0576 25.4829 44.4188 25.1237C44.7797 24.7646 44.9603 24.3048 44.9603 23.7439C44.9603 23.1992 44.8041 22.7394 44.4882 22.36C44.1757 21.9808 43.5855 21.7913 42.7179 21.7913H41.3987V25.6644Z" fill="#164A34"/>
<path d="M51.8999 35.5894V18.2569H59.5788C61.002 18.2569 62.0921 18.3982 62.8416 18.6847C63.5953 18.9671 64.2027 19.4955 64.6641 20.2622C65.1259 21.0328 65.3549 21.9728 65.3549 23.0783C65.3549 24.0384 65.1781 24.8696 64.8238 25.5676C64.4732 26.2696 63.9874 26.8344 63.3659 27.2702C62.9738 27.5445 62.4323 27.7746 61.7484 27.9561C62.2967 28.1699 62.6961 28.3797 62.9457 28.5935C63.1125 28.7347 63.3591 29.0413 63.6818 29.5053C64.0014 29.9692 64.2164 30.3283 64.3242 30.5825L66.5632 35.5894H61.356L58.8949 30.3041C58.5824 29.6184 58.3047 29.1745 58.0616 28.9687C57.7285 28.7024 57.3502 28.5694 56.9302 28.5694H56.5241V35.5894H51.8999ZM56.5241 25.3013H58.4712C58.6796 25.3013 59.0892 25.2206 59.6932 25.0633C59.9987 24.9947 60.2487 24.8131 60.4396 24.5186C60.6339 24.2241 60.7311 23.8892 60.7311 23.51C60.7311 22.9492 60.5786 22.5175 60.2731 22.2188C59.9675 21.9163 59.3948 21.767 58.5512 21.767H56.5241V25.3013Z" fill="#164A34"/>
<path d="M67.0972 26.9351C67.0972 24.1069 67.7742 21.9041 69.1312 20.3305C70.4884 18.753 72.3771 17.9662 74.8001 17.9662C77.2822 17.9662 79.1946 18.7411 80.5381 20.2861C81.8816 21.8355 82.5515 24.0061 82.5515 26.7939C82.5515 28.8193 82.26 30.4776 81.6732 31.7726C81.0868 33.0678 80.236 34.0764 79.1287 34.7986C78.018 35.5208 76.6364 35.8798 74.9804 35.8798C73.3004 35.8798 71.9085 35.5692 70.8043 34.9478C69.7042 34.3225 68.8084 33.338 68.1245 31.9905C67.4405 30.647 67.0972 28.9605 67.0972 26.9351ZM71.7001 26.9473C71.7001 28.6942 71.9813 29.953 72.5402 30.7156C73.1023 31.4781 73.8662 31.8613 74.8314 31.8613C75.8206 31.8613 76.5911 31.4862 77.1328 30.7397C77.6777 29.9894 77.9486 28.6499 77.9486 26.7092C77.9486 25.0793 77.664 23.8891 77.0982 23.1387C76.5286 22.3842 75.7615 22.009 74.7895 22.009C73.8594 22.009 73.1095 22.3923 72.5471 23.1548C71.9813 23.9174 71.7001 25.1842 71.7001 26.9473Z" fill="#164A34"/>
<path d="M85.0718 18.2569H89.3729L94.9653 27.8269V18.2569H99.3185V35.5894H94.9653L89.4041 26.0719V35.5894H85.0718V18.2569Z" fill="#164A34"/>
<path d="M111.35 32.733H106.129L105.379 35.5894H100.675L106.289 18.2569H111.332L116.921 35.5894H112.096L111.35 32.733ZM110.374 28.9808L108.746 22.7515L107.111 28.9808H110.374Z" fill="#164A34"/>
<path d="M115.901 17.9662H129.918V22.2509H125.211V35.2987H120.608V22.2509H115.901V17.9662Z" fill="#164A34"/>
<path d="M131.984 18.2569H144.314V21.9607H136.608V24.7203H143.752V28.2546H136.608V31.6678H144.543V35.5894H131.984V18.2569Z" fill="#164A34"/>
<path d="M156.959 28.4966L161 29.9126C160.729 31.2279 160.302 32.3294 159.716 33.2089C159.132 34.0925 158.41 34.7582 157.543 35.2059C156.678 35.6539 155.578 35.8798 154.241 35.8798C152.617 35.8798 151.294 35.6054 150.263 35.0607C149.236 34.5121 148.35 33.5478 147.604 32.1721C146.858 30.7962 146.483 29.0291 146.483 26.8826C146.483 24.0182 147.139 21.8153 148.451 20.2742C149.767 18.737 151.624 17.9662 154.026 17.9662C155.904 17.9662 157.383 18.4061 158.459 19.2897C159.532 20.1733 160.334 21.5289 160.854 23.3605L156.793 24.4055C156.65 23.881 156.501 23.4976 156.345 23.2556C156.085 22.8481 155.769 22.5335 155.397 22.3156C155.023 22.0936 154.606 21.9847 154.144 21.9847C153.096 21.9847 152.294 22.4729 151.739 23.4453C151.319 24.1674 151.107 25.3052 151.107 26.8504C151.107 28.7708 151.357 30.0821 151.86 30.7962C152.363 31.5063 153.068 31.8613 153.977 31.8613C154.859 31.8613 155.526 31.5749 155.977 30.998C156.428 30.4251 156.754 29.5899 156.959 28.4966Z" fill="#164A34"/>
<path d="M14.0866 5.58392L13.1316 7.21257L11.4603 6.74724L5.25271 18.6132C20.342 21.4051 27.2977 32.6506 28.8894 37.9244C22.3953 25.6396 8.03818 21.0174 1.67139 20.2418L10.2666 3.95526L14.0866 5.58392Z" fill="#049565"/>
<path d="M0 26.7564L2.86506 21.1725L5.73011 21.6378L4.53634 24.4298C18.2886 26.6634 25.7059 33.5813 27.6955 36.761C18.7184 28.199 5.49136 26.5238 0 26.7564Z" fill="#164A83"/>
<path d="M9.56787 16.0539L18.6405 0C20.3914 0.542885 29.3668 4.40898 31.9364 11.8048C31.061 10.6415 25.696 3.85324 19.8343 2.79198L12.9104 15.3559C26.2807 21.8705 29.9416 33.116 30.1008 37.9244C27.2357 25.4536 15.2184 18.1479 9.56787 16.0539Z" fill="#FFCE0E"/>
<path d="M37.6214 4.26013H40.161L42.8433 10.8041H42.9574L45.6397 4.26013H48.1793V14H46.1819V7.66052H46.101L43.5804 13.9524H42.2203L39.6997 7.63674H39.6189V14H37.6214V4.26013ZM63.9154 9.13006C63.9154 10.1922 63.7141 11.0958 63.3114 11.8409C62.912 12.5859 62.3666 13.1551 61.6755 13.5482C60.9874 13.9382 60.2138 14.1332 59.3546 14.1332C58.4891 14.1332 57.7123 13.9366 57.0243 13.5434C56.3363 13.1503 55.7925 12.5812 55.393 11.8361C54.9936 11.091 54.7938 10.189 54.7938 9.13006C54.7938 8.06793 54.9936 7.16433 55.393 6.41926C55.7925 5.67418 56.3363 5.10666 57.0243 4.71668C57.7123 4.32354 58.4891 4.12696 59.3546 4.12696C60.2138 4.12696 60.9874 4.32354 61.6755 4.71668C62.3666 5.10666 62.912 5.67418 63.3114 6.41926C63.7141 7.16433 63.9154 8.06793 63.9154 9.13006ZM61.8276 9.13006C61.8276 8.44206 61.7246 7.86185 61.5185 7.38944C61.3156 6.91703 61.0287 6.55876 60.6577 6.31463C60.2868 6.0705 59.8524 5.94843 59.3546 5.94843C58.8568 5.94843 58.4225 6.0705 58.0515 6.31463C57.6806 6.55876 57.3921 6.91703 57.186 7.38944C56.9831 7.86185 56.8816 8.44206 56.8816 9.13006C56.8816 9.81807 56.9831 10.3983 57.186 10.8707C57.3921 11.3431 57.6806 11.7014 58.0515 11.9455C58.4225 12.1896 58.8568 12.3117 59.3546 12.3117C59.8524 12.3117 60.2868 12.1896 60.6577 11.9455C61.0287 11.7014 61.3156 11.3431 61.5185 10.8707C61.7246 10.3983 61.8276 9.81807 61.8276 9.13006ZM78.6766 4.26013V14H76.898L72.6605 7.86978H72.5892V14H70.5299V4.26013H72.3371L76.5413 10.3856H76.6269V4.26013H78.6766ZM87.5264 4.26013V14H85.4671V4.26013H87.5264ZM93.9387 5.95795V4.26013H101.938V5.95795H98.9561V14H96.9206V5.95795H93.9387ZM116.85 9.13006C116.85 10.1922 116.649 11.0958 116.246 11.8409C115.847 12.5859 115.301 13.1551 114.61 13.5482C113.922 13.9382 113.149 14.1332 112.289 14.1332C111.424 14.1332 110.647 13.9366 109.959 13.5434C109.271 13.1503 108.727 12.5812 108.328 11.8361C107.928 11.091 107.729 10.189 107.729 9.13006C107.729 8.06793 107.928 7.16433 108.328 6.41926C108.727 5.67418 109.271 5.10666 109.959 4.71668C110.647 4.32354 111.424 4.12696 112.289 4.12696C113.149 4.12696 113.922 4.32354 114.61 4.71668C115.301 5.10666 115.847 5.67418 116.246 6.41926C116.649 7.16433 116.85 8.06793 116.85 9.13006ZM114.762 9.13006C114.762 8.44206 114.659 7.86185 114.453 7.38944C114.25 6.91703 113.963 6.55876 113.592 6.31463C113.222 6.0705 112.787 5.94843 112.289 5.94843C111.792 5.94843 111.357 6.0705 110.986 6.31463C110.615 6.55876 110.327 6.91703 110.121 7.38944C109.918 7.86185 109.816 8.44206 109.816 9.13006C109.816 9.81807 109.918 10.3983 110.121 10.8707C110.327 11.3431 110.615 11.7014 110.986 11.9455C111.357 12.1896 111.792 12.3117 112.289 12.3117C112.787 12.3117 113.222 12.1896 113.592 11.9455C113.963 11.7014 114.25 11.3431 114.453 10.8707C114.659 10.3983 114.762 9.81807 114.762 9.13006ZM123.465 14V4.26013H127.307C128.043 4.26013 128.671 4.3917 129.191 4.65486C129.714 4.91484 130.112 5.28421 130.384 5.76296C130.66 6.23854 130.798 6.79814 130.798 7.44175C130.798 8.08854 130.659 8.64497 130.38 9.11104C130.101 9.57394 129.696 9.92904 129.167 10.1763C128.641 10.4236 128.003 10.5473 127.255 10.5473H124.682V8.89227H126.922C127.315 8.89227 127.642 8.83837 127.902 8.73058C128.162 8.62278 128.355 8.46108 128.482 8.24548C128.612 8.02989 128.677 7.76198 128.677 7.44175C128.677 7.11836 128.612 6.84569 128.482 6.62376C128.355 6.40182 128.16 6.23378 127.897 6.11964C127.637 6.00233 127.309 5.94368 126.913 5.94368H125.524V14H123.465ZM128.725 9.5676L131.145 14H128.872L126.504 9.5676H128.725Z" fill="#164A34"/>
</svg>
