<svg width="199" height="52" viewBox="0 0 199 52" fill="none" xmlns="http://www.w3.org/2000/svg">
<path d="M3.16301 31V3.56029H13.6569C15.6557 3.56029 17.4585 3.91451 19.0651 4.62296C20.6718 5.33141 21.9369 6.36878 22.8604 7.73507C23.7966 9.08871 24.2646 10.746 24.2646 12.7069C24.2646 14.5159 23.8598 16.072 23.0502 17.375C22.2532 18.6654 21.1209 19.6585 19.6534 20.3543C18.1986 21.0374 16.478 21.379 14.4919 21.379H9.6529V31H3.16301ZM9.59597 16.4831H14.3021C15.4533 16.4831 16.4021 16.0783 17.1485 15.2687C17.9076 14.4464 18.2871 13.4786 18.2871 12.3653C18.2871 11.2141 17.8823 10.2716 17.0726 9.53782C16.2756 8.79142 15.3331 8.41822 14.2452 8.41822H9.59597V16.4831ZM26.2829 31V3.56029H38.2949C40.5847 3.56029 42.4381 3.93349 43.855 4.67989C45.2719 5.41364 46.3093 6.42571 46.9671 7.71609C47.6249 8.99383 47.9539 10.4487 47.9539 12.0806C47.9539 13.5102 47.7515 14.7247 47.3466 15.7241C46.9418 16.7109 46.3915 17.5458 45.6957 18.229C45.0125 18.8995 44.2408 19.4687 43.3806 19.9368L48.3334 31H41.6917L37.46 20.9805H32.7539V31H26.2829ZM32.7539 16.1036H37.403C38.6175 16.1036 39.5916 15.7178 40.3254 14.9461C41.0718 14.1744 41.445 13.2572 41.445 12.1945C41.445 11.0812 41.0655 10.1704 40.3064 9.46191C39.5474 8.75346 38.6428 8.39924 37.5928 8.39924H32.7539V16.1036ZM62.3388 31.3795C59.6821 31.3795 57.3796 30.8102 55.4314 29.6717C53.4958 28.5204 51.9967 26.8948 50.934 24.7948C49.8714 22.6947 49.34 20.2088 49.34 17.3371C49.34 14.44 49.8777 11.9352 50.953 9.82246C52.0283 7.70977 53.5401 6.07781 55.4883 4.92658C57.4492 3.7627 59.7327 3.18076 62.3388 3.18076C64.9449 3.18076 67.2094 3.7627 69.1323 4.92658C71.0679 6.07781 72.567 7.70977 73.6297 9.82246C74.705 11.9352 75.2427 14.44 75.2427 17.3371C75.2427 20.2088 74.7176 22.6947 73.6676 24.7948C72.6176 26.8948 71.1248 28.5204 69.1892 29.6717C67.2536 30.8102 64.9702 31.3795 62.3388 31.3795ZM62.3388 26.1421C63.5153 26.1421 64.5464 25.8574 65.4319 25.2881C66.3175 24.7062 67.0006 23.7764 67.4814 22.4986C67.9747 21.2209 68.2214 19.532 68.2214 17.432C68.2214 15.2687 67.9747 13.5292 67.4814 12.2135C66.988 10.8851 66.2985 9.92367 65.4129 9.32908C64.5274 8.72184 63.5027 8.41822 62.3388 8.41822C61.1623 8.41822 60.1312 8.72184 59.2456 9.32908C58.3601 9.93632 57.6643 10.9041 57.1583 12.2325C56.6649 13.5481 56.4182 15.2813 56.4182 17.432C56.4182 19.532 56.6649 21.2209 57.1583 22.4986C57.6643 23.7764 58.3601 24.7062 59.2456 25.2881C60.1312 25.8574 61.1623 26.1421 62.3388 26.1421ZM77.897 31V3.56029H84.3679L95.9814 20.2974V3.56029H102.433V31H96.6076L84.3679 13.39V31H77.897ZM104.176 31L113.93 3.56029H120.629L130.401 31H123.987L121.957 25.1553H112.697L110.628 31H104.176ZM114.101 19.5953H120.458L117.289 9.76553L114.101 19.5953ZM134.708 31V9.27215H126.681V3.56029H149.167V9.27215H141.197V31H134.708ZM150.741 31V3.56029H170.305L170.267 8.94955H157.25V14.5476H168.351V19.823H157.212V25.5538L170.419 25.5728V31H150.741ZM184.698 31.3795C182.092 31.3795 179.833 30.7723 177.923 29.5578C176.013 28.3307 174.533 26.6355 173.483 24.4722C172.433 22.3089 171.908 19.8103 171.908 16.9765C171.908 14.1554 172.426 11.7138 173.464 9.65168C174.501 7.58958 175.975 5.99558 177.885 4.86965C179.808 3.74372 182.079 3.18076 184.698 3.18076C186.823 3.18076 188.714 3.60456 190.372 4.45217C192.041 5.28713 193.389 6.44468 194.413 7.92483C195.438 9.39233 196.052 11.0686 196.254 12.9535H189.48C189.328 12.0427 189.037 11.252 188.607 10.5815C188.189 9.89837 187.633 9.36703 186.937 8.9875C186.254 8.60798 185.438 8.41822 184.489 8.41822C183.388 8.41822 182.427 8.69654 181.604 9.25317C180.782 9.79716 180.143 10.708 179.688 11.9858C179.245 13.2508 179.024 14.9461 179.024 17.0714C179.024 20.31 179.517 22.6315 180.504 24.0357C181.503 25.4399 182.832 26.1421 184.489 26.1421C185.438 26.1421 186.254 25.9144 186.937 25.4589C187.633 25.0035 188.189 24.3963 188.607 23.6372C189.037 22.8655 189.328 22.0305 189.48 21.1323H196.254C196.077 22.486 195.754 23.7827 195.286 25.0225C194.831 26.2496 194.167 27.3439 193.294 28.3054C192.421 29.2668 191.282 30.0196 189.878 30.5635C188.487 31.1075 186.76 31.3795 184.698 31.3795Z" fill="#90C155"/>
<path d="M1.44715 50.0017L4.22553 31.3155H16.7347L16.2436 34.4945H7.49496L6.83591 39.0303H14.3957L13.9434 42.1447H6.34485L5.65994 46.7839L14.5637 46.7969L14.0726 50.0017H1.44715ZM19.8196 50.0017L22.585 31.3155H28.0255L30.1448 44.6388L36.2314 31.3155H41.6201L38.8676 50.0017H35.1071L37.2135 35.7092L30.7909 50.0017H27.8833L25.6865 35.7738L23.5801 50.0017H19.8196ZM45.2338 50.0017L48.0122 31.3155H54.719C56.0372 31.3155 57.183 31.5524 58.1565 32.0262C59.1386 32.4915 59.8666 33.1807 60.3404 34.0939C60.8142 35.0071 60.9521 36.1227 60.7539 37.4408C60.573 38.6814 60.1466 39.7411 59.4746 40.6198C58.8112 41.4986 57.9626 42.1705 56.9288 42.6358C55.895 43.101 54.7234 43.3336 53.4139 43.3336H50.0023L49.0072 50.0017H45.2338ZM50.39 40.4131H53.7498C54.3529 40.4131 54.9086 40.2752 55.4169 39.9995C55.9252 39.7238 56.343 39.3491 56.6704 38.8753C57.0064 38.3928 57.2174 37.8501 57.3036 37.247C57.4328 36.3166 57.2347 35.58 56.7091 35.0372C56.1836 34.4859 55.4815 34.2102 54.6027 34.2102H51.3075L50.39 40.4131ZM63.9091 50.0017L66.6745 31.3155H74.3506C75.8066 31.3155 76.961 31.5524 77.8139 32.0262C78.6668 32.5001 79.2483 33.1591 79.5584 34.0034C79.8772 34.8391 79.9547 35.804 79.7911 36.8981C79.6446 37.8802 79.3732 38.7116 78.9769 39.3922C78.5806 40.0641 78.1111 40.6241 77.5684 41.0721C77.0256 41.5201 76.4484 41.8862 75.8367 42.1705L78.0336 50.0017H74.1826L72.3088 42.8038H68.6905L67.6308 50.0017H63.9091ZM69.1298 39.8961H72.4639C73.1014 39.8961 73.67 39.7755 74.1697 39.5343C74.6694 39.2845 75.0786 38.9442 75.3973 38.5134C75.7161 38.0741 75.9186 37.5658 76.0047 36.9885C76.1339 36.127 75.9616 35.4464 75.4878 34.9468C75.014 34.4471 74.3678 34.1973 73.5494 34.1973H69.9698L69.1298 39.8961ZM83.6192 50.0017L86.3976 31.3155H98.9067L98.4156 34.4945H89.667L89.0079 39.0303H96.5677L96.1154 42.1447H88.5169L87.832 46.7839L96.7357 46.7969L96.2446 50.0017H83.6192ZM101.992 50.0017L104.77 31.3155H117.279L116.788 34.4945H108.039L107.38 39.0303H114.94L114.488 42.1447H106.889L106.204 46.7839L115.108 46.7969L114.617 50.0017H101.992ZM120.364 50.0017L123.142 31.3155H126.851L133.235 43.6825L135.044 31.3155H138.792L136.013 50.0017H132.653L125.998 37.1436L124.112 50.0017H120.364ZM142.434 50.0017L145.109 31.3155C145.204 31.3155 145.501 31.3198 146.001 31.3284C146.501 31.3284 147.069 31.3284 147.707 31.3284C148.939 31.3284 150.11 31.3801 151.222 31.4835C152.333 31.5783 153.354 31.7678 154.284 32.0521C155.215 32.3278 156.02 32.737 156.701 33.2797C157.382 33.8225 157.907 34.5375 158.278 35.4249C158.657 36.3036 158.846 37.3935 158.846 38.6943C158.846 39.4352 158.781 40.2278 158.652 41.0721C158.523 41.9078 158.303 42.7478 157.993 43.592C157.692 44.4363 157.274 45.2418 156.74 46.0086C156.206 46.7753 155.534 47.4602 154.724 48.0633C153.914 48.6577 152.945 49.1316 151.816 49.4848C150.696 49.8294 149.387 50.0017 147.888 50.0017H142.434ZM146.66 46.9519H148.237C149.322 46.9519 150.283 46.7409 151.118 46.3187C151.954 45.888 152.66 45.2978 153.238 44.5483C153.815 43.7988 154.25 42.933 154.543 41.9509C154.836 40.9601 154.982 39.8961 154.982 38.759C154.982 37.7165 154.797 36.8766 154.427 36.239C154.056 35.5929 153.522 35.1191 152.824 34.8175C152.135 34.516 151.299 34.3652 150.317 34.3652H148.508L146.66 46.9519ZM162.838 50.0017L165.617 31.3155H178.126L177.635 34.4945H168.886L168.227 39.0303H175.787L175.334 42.1447H167.736L167.051 46.7839L175.955 46.7969L175.464 50.0017H162.838ZM181.211 50.0017L183.976 31.3155H191.652C193.108 31.3155 194.263 31.5524 195.115 32.0262C195.968 32.5001 196.55 33.1591 196.86 34.0034C197.179 34.8391 197.256 35.804 197.093 36.8981C196.946 37.8802 196.675 38.7116 196.278 39.3922C195.882 40.0641 195.413 40.6241 194.87 41.0721C194.327 41.5201 193.75 41.8862 193.138 42.1705L195.335 50.0017H191.484L189.61 42.8038H185.992L184.932 50.0017H181.211ZM186.431 39.8961H189.765C190.403 39.8961 190.972 39.7755 191.471 39.5343C191.971 39.2845 192.38 38.9442 192.699 38.5134C193.018 38.0741 193.22 37.5658 193.306 36.9885C193.435 36.127 193.263 35.4464 192.789 34.9468C192.315 34.4471 191.669 34.1973 190.851 34.1973H187.271L186.431 39.8961Z" fill="#204935"/>
</svg>
